{"title":"Flume ft. Kai - Never Be Like You (Electronic 2016)","uid":13695437,"size":51687644,"categoryP":"video","categoryS":"music_videos","magnet":"?xt=urn:btih:e360b4b154e12a27a6437f3ea869d1374ca0a040&amp;dn=Flume+ft.+Kai+-+Never+Be+Like+You+%28Electronic+2016%29&amp;tr=udp%3A%2F%2Ftracker.leechers-paradise.org%3A6969&amp;tr=udp%3A%2F%2Fzer0day.ch%3A1337&amp;tr=udp%3A%2F%2Fopen.demonii.com%3A1337&amp;tr=udp%3A%2F%2Ftracker.coppersurfer.tk%3A6969&amp;tr=udp%3A%2F%2Fexodus.desync.com%3A6969","seeders":4,"leechers":0,"uploader":"MeRaDil","files":1,"time":1456685316,"description":"FLUME ft.KAI - NEVER BE LIKE YOU\r\n\r\n \nhttp://www.topy.se/images/flumec6b40.png\r\n\r\n\r\nMEDIA INFO\r\nGeneral\r\nFlume ft. Kai - Never Be Like You\r\nFormat                                   : MPEG-4\r\nFormat profile                           : Base Media\r\nCodec ID                                 : isom (isom/iso2/avc1/mp41)\r\nFile size                                : 49.3 MiB\r\nDuration                                 : 3mn 52s\r\nOverall bit rate                         : 1 779 Kbps\r\nMusicVid name                            : Never Be Like You\r\nPerformer                                : Flume ft. Kai\r\nMake                                     : MeRaDil\r\nGenre                                    : Electronic\r\nContentType                              : Music Video\r\nRecorded date                            : 2016\r\nWriting application                      : MeRaDil\r\nCover                                    : Yes\r\nRelease time                             : Australia - february 14 - 2016\r\n\r\nVideo\r\nID                                       : 1\r\nFormat                                   : AVC\r\nFormat/Info                              : Advanced Video Codec\r\nFormat profile                           :   \r\nFormat settings, CABAC                   : Yes\r\nFormat settings, ReFrames                : 3 frames\r\nCodec ID                                 : avc1\r\nCodec ID/Info                            : Advanced Video Coding\r\nDuration                                 : 3mn 52s\r\nBit rate                                 : 1 507 Kbps\r\nWidth                                    : 1 920 pixels\r\nHeight                                   : 1 080 pixels\r\nDisplay aspect ratio                     : 16:9\r\nFrame rate mode                          : Constant\r\nFrame rate                               : 25.000 fps\r\nColor space                              : YUV\r\nChroma subsampling                       : 4:2:0\r\nBit depth                                : 8 bits\r\nScan type                                : Progressive\r\nBits/(Pixel*Frame)                       : 0.029\r\nStream size                              : 41.7 MiB (85%)\r\n\r\nAudio\r\nID                                       : 2\r\nFormat                                   : AAC\r\nFormat/Info                              : Advanced Audio Codec\r\nFormat profile                           : LC\r\nCodec ID                                 : 40\r\nDuration                                 : 3mn 52s\r\nBit rate mode                            : Constant\r\nBit rate                                 : 256 Kbps\r\nChannel(s)                               : 2 channels\r\nChannel positions                        : Front: L R\r\nSampling rate                            : 44.1 KHz\r\nFrame rate                               : 43.066 fps (1024 spf)\r\nCompression mode                         : Lossy\r\nStream size                              : 7.09 MiB (14%)\r\nDefault                                  : Yes\r\nAlternate group                          : 1","torrent":{"xt":"urn:btih:e360b4b154e12a27a6437f3ea869d1374ca0a040","amp;dn":"Flume+ft.+Kai+-+Never+Be+Like+You+%28Electronic+2016%29","amp;tr":["udp%3A%2F%2Ftracker.leechers-paradise.org%3A6969","udp%3A%2F%2Fzer0day.ch%3A1337","udp%3A%2F%2Fopen.demonii.com%3A1337","udp%3A%2F%2Ftracker.coppersurfer.tk%3A6969","udp%3A%2F%2Fexodus.desync.com%3A6969"],"infoHash":"e360b4b154e12a27a6437f3ea869d1374ca0a040","infoHashBuffer":{"type":"Buffer","data":[227,96,180,177,84,225,42,39,166,67,127,62,168,105,209,55,76,160,160,64]},"announce":[],"urlList":[]}}